<svg xmlns="http://www.w3.org/2000/svg" viewBox="0 0 64 64">
  <defs>
    <linearGradient id="bg" x1="0%" y1="0%" x2="100%" y2="100%">
      <stop offset="0%" stop-color="#25D366"/>
      <stop offset="100%" stop-color="#128C7E"/>
    </linearGradient>
  </defs>
  <rect width="64" height="64" rx="16" fill="url(#bg)"/>
  <path d="M32 10C20.95 10 12 18.95 12 30c0 3.78 1.05 7.32 2.88 10.34L12 52l11.66-2.88C26.68 50.95 29.22 51.5 32 51.5c11.05 0 20-8.95 20-20S43.05 10 32 10z" fill="white"/>
  <path d="M24.5 22.5c-.4-1-.5-1.5-.9-1.5-.35 0-.75.15-1.2.45-.9.6-1.4 1.55-1.4 2.65 0 3.8 2.75 7.45 5.1 9.8 2.35 2.35 6 5.1 9.8 5.1 1.1 0 2.05-.5 2.65-1.4.3-.45.45-.85.45-1.2 0-.4-.5-.5-1.5-.9l-3-.95c-1-.3-1.5-.1-2 .5l-.7 1.1c-.2.3-.55.4-.9.25-1.85-.85-4.15-3.15-5-5-.15-.35-.05-.7.25-.9l1.1-.7c.6-.5.8-1 .5-2l-.95-3z" fill="#25D366"/>
</svg>
